<svg viewBox="0 0 200 200" xmlns="http://www.w3.org/2000/svg" width="200" height="200" role="img" aria-label="Escudo E.D. Val Miñor Nigrán">
  <defs>
    <path id="edvmArcTop" d="M 24.8,72.6 A 80,80 0 0 1 175.2,72.6"/>
    <path id="edvmArcBot" d="M 34.5,145.9 A 80,80 0 0 0 165.5,145.9"/>
  </defs>
  <circle cx="100" cy="100" r="98" fill="#cc1f1f"/>
  <g fill="#ffffff" font-family="'Barlow Condensed','Arial Narrow',Arial,Helvetica,sans-serif" font-weight="700">
    <text font-size="16" letter-spacing="1.2">
      <textPath href="#edvmArcTop" startOffset="50%" text-anchor="middle">ED VAL MIÑOR</textPath>
    </text>
    <text font-size="17" letter-spacing="3">
      <textPath href="#edvmArcBot" startOffset="50%" text-anchor="middle">NIGRÁN</textPath>
    </text>
  </g>
  <path d="M 52,80 C 66,68 78,68 90,78 C 98,84 102,84 110,78 C 122,68 134,68 148,80" fill="none" stroke="#ffffff" stroke-width="6.5" stroke-linecap="round" stroke-linejoin="round"/>
  <path d="M 56,88 L 144,88 L 100,160 Z M 100,88 L 78,124 L 122,124 Z" fill="#ffffff" fill-rule="evenodd"/>
  <polygon points="100,100 110,119 90,119" fill="#ffffff"/>
</svg>
